<?xml version="1.0" standalone="no"?>
<!DOCTYPE svg PUBLIC "-//W3C//DTD SVG 20010904//EN"
 "http://www.w3.org/TR/2001/REC-SVG-20010904/DTD/svg10.dtd">
<svg version="1.0" xmlns="http://www.w3.org/2000/svg"
 width="545.000000pt" height="545.000000pt" viewBox="0 0 545.000000 545.000000"
 preserveAspectRatio="xMidYMid meet">
<metadata>
Created by potrace 1.14, written by Peter Selinger 2001-2017
</metadata>
<g transform="translate(0.000000,545.000000) scale(0.100000,-0.100000)"
fill="#000000" stroke="none">
<path d="M2528 5445 c-2 -2 -33 -6 -68 -9 -209 -15 -525 -89 -715 -167 -16 -7
-35 -13 -41 -14 -22 -5 -279 -130 -282 -137 -2 -5 -8 -8 -13 -8 -16 0 -176
-100 -279 -175 -158 -114 -393 -332 -490 -454 -19 -24 -50 -62 -68 -85 -17
-22 -37 -46 -42 -53 -5 -6 -40 -58 -76 -115 -37 -57 -74 -114 -83 -128 -9 -14
-30 -52 -46 -85 -17 -33 -32 -62 -35 -65 -18 -16 -150 -345 -166 -412 -1 -5
-2 -9 -4 -10 -1 -2 -3 -10 -5 -18 -2 -8 -16 -60 -31 -115 -14 -55 -28 -111
-30 -125 -2 -14 -6 -36 -9 -50 -14 -73 -15 -84 -32 -235 -9 -83 -10 -421 -1
-520 32 -341 135 -687 295 -995 68 -131 85 -163 94 -170 3 -3 12 -16 18 -28
19 -37 128 -188 195 -272 64 -80 283 -302 354 -360 24 -19 49 -40 55 -45 37
-32 167 -125 175 -125 6 0 12 -4 14 -8 5 -14 179 -117 286 -171 180 -90 452
-191 582 -215 14 -2 48 -10 75 -16 28 -7 61 -14 75 -16 14 -1 41 -6 60 -10 19
-4 49 -8 65 -10 17 -2 59 -6 95 -10 84 -10 457 -10 535 -1 33 4 78 10 100 12
103 11 260 44 370 77 39 11 75 21 80 23 6 1 17 5 25 8 8 3 44 16 80 28 516
176 1018 569 1339 1049 121 180 269 472 290 572 1 4 11 29 22 55 11 27 38 116
59 198 42 166 46 186 65 330 1 11 3 20 4 20 7 0 15 181 15 345 0 175 -5 276
-18 350 -3 14 -7 45 -10 70 -15 141 -86 402 -156 576 -45 112 -189 403 -210
424 -3 3 -27 39 -54 80 -27 41 -58 85 -69 98 -11 12 -17 22 -12 22 4 0 -1 8
-11 18 -11 9 -39 44 -64 77 -59 78 -295 315 -390 391 -109 87 -216 164 -227
164 -6 0 -16 6 -22 14 -22 27 -322 188 -416 224 -16 6 -55 21 -85 33 -131 50
-345 111 -470 133 -19 3 -46 8 -59 11 -13 2 -49 7 -80 10 -31 4 -67 9 -81 12
-29 6 -467 13 -472 8z"/>
</g>
</svg>
